<svg id="a77d6e58-a844-486a-82c4-48b796b0b279" data-name="Capa 1" xmlns="http://www.w3.org/2000/svg" xmlns:xlink="http://www.w3.org/1999/xlink" viewBox="0 0 161.06 66.35"><defs><style>.afc614bc-dcfe-4395-9e82-fba4826dfd14{fill:none;}.ee48d447-a28b-4919-9df8-80fc53be57a8{clip-path:url(#ec9a66a2-fbe0-44bc-bccb-7a484ef27043);}.a65bfbbc-9a17-4c9e-9476-a006e01c0368,.e1d59672-42b6-442f-9a19-0b1afd2f8384{fill:#211915;}.eaa5992b-d034-4228-ba35-879c7a1f3b07{font-size:42.8px;fill:#fff;font-family:Minimal;letter-spacing:0.05em;}.a65bfbbc-9a17-4c9e-9476-a006e01c0368{letter-spacing:0.05em;}</style><clipPath id="ec9a66a2-fbe0-44bc-bccb-7a484ef27043" transform="translate(-6.99 -51.2)"><rect class="afc614bc-dcfe-4395-9e82-fba4826dfd14" x="-22.68" y="38.71" width="132.84" height="88.56"/></clipPath></defs><title>logo2</title><g class="ee48d447-a28b-4919-9df8-80fc53be57a8"><polygon class="e1d59672-42b6-442f-9a19-0b1afd2f8384" points="20.31 27.08 54.93 27.08 37.62 61.83 20.31 27.08"/><polygon class="e1d59672-42b6-442f-9a19-0b1afd2f8384" points="1.04 18.88 17.44 27.08 33.45 59.49 1.04 18.88"/><polygon class="e1d59672-42b6-442f-9a19-0b1afd2f8384" points="0 15.36 7.29 6.38 20.31 11.32 17.25 22.91 0 15.36"/><polygon class="e1d59672-42b6-442f-9a19-0b1afd2f8384" points="23.04 12.5 20.31 22.91 54.93 22.91 52.46 12.5 23.04 12.5"/><polygon class="e1d59672-42b6-442f-9a19-0b1afd2f8384" points="54.93 11.72 58.58 22.91 75.11 15.23 68.34 6.9 54.93 11.72"/><polygon class="e1d59672-42b6-442f-9a19-0b1afd2f8384" points="21.35 9.11 53.89 9.11 65.02 4.43 54.28 0 21.35 0 10.15 4.56 21.35 9.11"/></g><text class="eaa5992b-d034-4228-ba35-879c7a1f3b07" transform="translate(26.58 55.44) scale(1.09 1)">V<tspan class="a65bfbbc-9a17-4c9e-9476-a006e01c0368" x="22.08" y="0">ALUAR</tspan></text></svg>