<svg id="efdb74b9-c5f0-49c8-8852-8c499d6f8845" data-name="Capa 1" xmlns="http://www.w3.org/2000/svg" viewBox="0 0 161.12 167.78"><defs><style>.b9a0095d-c1da-4b37-acc1-485b3c1c674c{font-size:11.3px;font-family:Aileron-UltraLight, Aileron;font-weight:100;}.b8496cb5-a2fe-4a1e-b6ba-9ed4f9df6d53,.b9a0095d-c1da-4b37-acc1-485b3c1c674c{fill:#211915;}.bb8f762c-34b7-4112-85bc-4d55527f8d85{fill:#040006;}.ed5bd9b4-3efd-49e1-82d0-0d3bb25855d6{fill:#201813;}.b8496cb5-a2fe-4a1e-b6ba-9ed4f9df6d53{font-size:63.1px;font-family:Blacksword;letter-spacing:0.05em;}</style></defs><title>logo1</title><text class="b9a0095d-c1da-4b37-acc1-485b3c1c674c" transform="matrix(-0.17, 0.99, -0.99, -0.17, 4.12, 79.16)">V</text><text class="b9a0095d-c1da-4b37-acc1-485b3c1c674c" transform="matrix(-0.02, 1, -1, -0.02, 2.59, 89.84)">A</text><text class="b9a0095d-c1da-4b37-acc1-485b3c1c674c" transform="translate(2.83 101.87) rotate(81.67)">L</text><text class="b9a0095d-c1da-4b37-acc1-485b3c1c674c" transform="translate(4.83 112.88) rotate(72.28)">U</text><text class="b9a0095d-c1da-4b37-acc1-485b3c1c674c" transform="translate(8.78 123.91) rotate(62.66)">A</text><text class="b9a0095d-c1da-4b37-acc1-485b3c1c674c" transform="translate(14.72 134.41) rotate(53.1)">R</text><text class="b9a0095d-c1da-4b37-acc1-485b3c1c674c" transform="matrix(0.7, 0.72, -0.72, 0.7, 21.9, 143.21)"> </text><text class="b9a0095d-c1da-4b37-acc1-485b3c1c674c" transform="translate(26.83 147.95) rotate(39.79)">-</text><text class="b9a0095d-c1da-4b37-acc1-485b3c1c674c" transform="translate(33.05 152.77) rotate(33.85)"> </text><text class="b9a0095d-c1da-4b37-acc1-485b3c1c674c" transform="translate(38.95 156.5) rotate(26.77)">J</text><text class="b9a0095d-c1da-4b37-acc1-485b3c1c674c" transform="translate(48.64 161.02) rotate(17.05)">O</text><text class="b9a0095d-c1da-4b37-acc1-485b3c1c674c" transform="translate(61.23 164.35) rotate(7.22)">Y</text><text class="b9a0095d-c1da-4b37-acc1-485b3c1c674c" transform="matrix(1, -0.02, 0.02, 1, 71.39, 165.36)">A</text><text class="b9a0095d-c1da-4b37-acc1-485b3c1c674c" transform="matrix(0.98, -0.19, 0.19, 0.98, 83.4, 164.66)">S</text><path class="bb8f762c-34b7-4112-85bc-4d55527f8d85" d="M136,55.81a65,65,0,0,1-23.33,98.78v6.47a70.88,70.88,0,0,0,29.5-106.72Z" transform="translate(-11.61 -1.85)"/><path class="bb8f762c-34b7-4112-85bc-4d55527f8d85" d="M84.64,30.66a64.78,64.78,0,0,1,36,10.88l0-6.84A70.81,70.81,0,0,0,19.76,67.08h6.46A65.1,65.1,0,0,1,84.64,30.66Z" transform="translate(-11.61 -1.85)"/><path class="ed5bd9b4-3efd-49e1-82d0-0d3bb25855d6" d="M129.49,33.56a70.16,70.16,0,0,1,12.1,11.12L154,38.82,132,21.5Z" transform="translate(-11.61 -1.85)"/><path class="ed5bd9b4-3efd-49e1-82d0-0d3bb25855d6" d="M128.21,39.73l-2.6,12.51,10.58-5A65.84,65.84,0,0,0,128.21,39.73Z" transform="translate(-11.61 -1.85)"/><path class="ed5bd9b4-3efd-49e1-82d0-0d3bb25855d6" d="M129.49,33.56l-1.28,6.17a65.84,65.84,0,0,1,8,7.5l5.4-2.55A70.16,70.16,0,0,0,129.49,33.56Z" transform="translate(-11.61 -1.85)"/><path class="ed5bd9b4-3efd-49e1-82d0-0d3bb25855d6" d="M127.62,32.17l2.55-12.1L123.86,6.66,124,30C125.22,30.69,126.45,31.38,127.62,32.17Z" transform="translate(-11.61 -1.85)"/><path class="ed5bd9b4-3efd-49e1-82d0-0d3bb25855d6" d="M124.13,48.66l2.19-10.34c-.76-.55-1.49-1.12-2.27-1.63Z" transform="translate(-11.61 -1.85)"/><path class="ed5bd9b4-3efd-49e1-82d0-0d3bb25855d6" d="M124.05,36.69c.78.51,1.51,1.08,2.27,1.63l1.3-6.15c-1.17-.79-2.4-1.48-3.61-2.19Z" transform="translate(-11.61 -1.85)"/><polygon class="ed5bd9b4-3efd-49e1-82d0-0d3bb25855d6" points="128.27 9.65 122.47 0 113.35 2.06 120.53 15.48 128.27 9.65"/><polygon class="ed5bd9b4-3efd-49e1-82d0-0d3bb25855d6" points="148.1 26.48 129.42 11.76 122.47 17.01 144.46 34.33 148.1 26.48"/><polygon class="ed5bd9b4-3efd-49e1-82d0-0d3bb25855d6" points="146.78 36.15 161.12 39.55 160.99 30.86 150.06 27.22 146.78 36.15"/><polygon class="ed5bd9b4-3efd-49e1-82d0-0d3bb25855d6" points="150.7 25.05 160.12 27.64 155.51 19.45 134.59 2.98 125.21 0.27 130.03 8.77 150.7 25.05"/><path class="ed5bd9b4-3efd-49e1-82d0-0d3bb25855d6" d="M129.59,53l9.52-2.27c-.42-.53-.8-1.08-1.22-1.59Z" transform="translate(-11.61 -1.85)"/><path class="ed5bd9b4-3efd-49e1-82d0-0d3bb25855d6" d="M143.2,46.63c.68.85,1.32,1.73,2,2.62l25.16-6-14.1-2.67Z" transform="translate(-11.61 -1.85)"/><path class="ed5bd9b4-3efd-49e1-82d0-0d3bb25855d6" d="M137.89,49.1c.42.51.8,1.06,1.22,1.59l6-1.44c-.64-.89-1.28-1.77-2-2.62Z" transform="translate(-11.61 -1.85)"/><text class="b8496cb5-a2fe-4a1e-b6ba-9ed4f9df6d53" transform="translate(17.35 117.88)">V</text></svg>