<svg id="ff400414-f2f5-4bfa-b8f2-2cf7cfef13af" data-name="Capa 1" xmlns="http://www.w3.org/2000/svg" viewBox="0 0 159.12 63.54"><defs><style>.b71940f5-2b66-4567-899a-68b2e0d755b7{fill:none;}</style></defs><title>valuar-logo22</title><polygon class="b71940f5-2b66-4567-899a-68b2e0d755b7" points="125.42 43.23 133.8 43.23 129.63 33.12 125.42 43.23"/><polygon class="b71940f5-2b66-4567-899a-68b2e0d755b7" points="59.61 43.23 67.99 43.23 63.82 33.12 59.61 43.23"/><path class="b71940f5-2b66-4567-899a-68b2e0d755b7" d="M162.67,88.24c0-3.94-4.07-7.19-9.08-7.19a10.54,10.54,0,0,0-1.12.08V94.66a10.48,10.48,0,0,0,1.12,0C158.83,94.7,162.67,92,162.67,88.24Z" transform="translate(-5.85 -49.55)"/><polygon points="1.07 19.4 34.38 61.13 17.92 27.82 1.07 19.4"/><polygon points="20.87 11.64 7.49 6.55 0 15.78 17.72 23.54 20.87 11.64"/><polygon points="23.68 12.84 20.87 23.54 56.45 23.54 53.91 12.84 23.68 12.84"/><polygon points="70.22 7.09 56.45 12.04 60.19 23.54 77.18 15.65 70.22 7.09"/><polygon points="55.38 9.36 66.81 4.55 55.78 0 21.94 0 10.43 4.68 21.94 9.36 55.38 9.36"/><polygon class="b71940f5-2b66-4567-899a-68b2e0d755b7" points="47.63 30.94 38.73 55.17 29.88 30.94 28.43 30.94 38.03 57.09 39.43 57.13 49.03 30.94 47.63 30.94"/><polygon class="b71940f5-2b66-4567-899a-68b2e0d755b7" points="47.63 30.94 38.73 55.17 29.88 30.94 28.43 30.94 38.03 57.09 39.43 57.13 49.03 30.94 47.63 30.94"/><path d="M26.71,77.37,44.5,113.09,62.3,77.37Zm17.17,29.27-9.6-26.15h1.45l8.85,24.22,8.89-24.22h1.41l-9.6,26.19Z" transform="translate(-5.85 -49.55)"/><path d="M69,80.92,58.38,106.6h1.41L65,93.93H74.3l5.24,12.67H80.9L70.28,80.92ZM65.45,92.77l4.22-10.1,4.16,10.1Z" transform="translate(-5.85 -49.55)"/><polygon points="80.48 31.37 79.03 31.37 79.03 57.05 92.09 57.05 92.09 55.72 80.48 55.72 80.48 31.37"/><path d="M120.45,81h-1.4v19.39a4.29,4.29,0,0,1-2.25,3.51,10.24,10.24,0,0,1-5.71,1.59,10.61,10.61,0,0,1-5.76-1.55,4.52,4.52,0,0,1-2.24-3.16V81h-1.41v19.39a5.58,5.58,0,0,0,2.86,4.58,12.39,12.39,0,0,0,6.69,1.8,11.47,11.47,0,0,0,6.46-1.8,5.82,5.82,0,0,0,2.81-4.15l0-.13Z" transform="translate(-5.85 -49.55)"/><path d="M134.82,80.92,124.2,106.6h1.4l5.2-12.67h9.31l5.25,12.67h1.35L136.09,80.92Zm-3.56,11.85,4.22-10.1,4.16,10.1Z" transform="translate(-5.85 -49.55)"/><path d="M157.43,95.26a10.07,10.07,0,0,0,3.32-1.55,6.57,6.57,0,0,0,3.05-5.47,7.35,7.35,0,0,0-3-5.82,11.48,11.48,0,0,0-7.21-2.4,10.8,10.8,0,0,0-2.39.26V106.6h1.27V95.68a8.4,8.4,0,0,0,1.12,0,15.67,15.67,0,0,0,2.53-.22l7.11,11.09H165Zm-3.84-.56a10.48,10.48,0,0,1-1.12,0V81.13a10.54,10.54,0,0,1,1.12-.08c5,0,9.08,3.25,9.08,7.19C162.67,92,158.83,94.7,153.59,94.7Z" transform="translate(-5.85 -49.55)"/></svg>
