<?xml version="1.0" encoding="utf-8"?>
<!-- Generator: Adobe Illustrator 23.0.1, SVG Export Plug-In . SVG Version: 6.00 Build 0)  -->
<svg version="1.1" id="b17a1712-b4bd-4d2a-8bf6-c3ba96daaa4d"
	 xmlns="http://www.w3.org/2000/svg" xmlns:xlink="http://www.w3.org/1999/xlink" x="0px" y="0px" viewBox="0 0 159.1 63.5"
	 style="enable-background:new 0 0 159.1 63.5;" xml:space="preserve">
<style type="text/css">
	.st0{fill:#FFFFFF;}
</style>
<title>valuar-logo23</title>
<polygon class="st0" points="1.1,19.4 34.4,61.1 17.9,27.8 "/>
<polygon class="st0" points="20.9,11.6 7.5,6.6 0,15.8 17.7,23.5 "/>
<polygon class="st0" points="23.7,12.8 20.9,23.5 56.5,23.5 53.9,12.8 "/>
<polygon class="st0" points="70.2,7.1 56.5,12 60.2,23.5 77.2,15.6 "/>
<polygon class="st0" points="55.4,9.4 66.8,4.6 55.8,0 21.9,0 10.4,4.7 21.9,9.4 "/>
<path class="st0" d="M20.9,27.8l17.8,35.7l17.8-35.7H20.9z M38,57.1l-9.6-26.2h1.5l8.9,24.2l8.9-24.2H49l-9.6,26.2L38,57.1z"/>
<path class="st0" d="M63.2,31.4L52.5,57h1.4l5.2-12.7h9.3L73.7,57h1.4L64.4,31.4H63.2z M59.6,43.2l4.2-10.1L68,43.2H59.6z"/>
<polygon class="st0" points="80.5,31.4 79,31.4 79,57 92.1,57 92.1,55.7 80.5,55.7 "/>
<path class="st0" d="M114.6,31.5h-1.4v19.4c-0.1,1.5-0.9,2.8-2.2,3.5c-1.7,1.1-3.7,1.6-5.7,1.6c-2,0-4-0.5-5.8-1.6
	c-1.2-0.7-2-1.8-2.2-3.2V31.5h-1.4v19.4c0.1,1.9,1.2,3.6,2.9,4.6c2,1.2,4.3,1.8,6.7,1.8c2.3,0.1,4.5-0.6,6.5-1.8
	c1.5-0.9,2.5-2.4,2.8-4.2v-0.1L114.6,31.5z"/>
<path class="st0" d="M129,31.4L118.3,57h1.4l5.2-12.7h9.3l5.2,12.7h1.4l-10.6-25.7H129z M125.4,43.2l4.2-10.1l4.2,10.1H125.4z"/>
<path class="st0" d="M151.6,45.7c1.2-0.3,2.3-0.8,3.3-1.6c1.9-1.2,3-3.2,3.1-5.5c0-2.3-1.1-4.5-3-5.8c-2.1-1.6-4.6-2.4-7.2-2.4
	c-0.8,0-1.6,0.1-2.4,0.3V57h1.3V46.1c0.4,0,0.7,0,1.1,0c0.8,0,1.7-0.1,2.5-0.2l7.1,11.1h1.8L151.6,45.7z M147.7,45.2
	c-0.4,0-0.7,0-1.1,0V31.6c0.4,0,0.7-0.1,1.1-0.1c5,0,9.1,3.2,9.1,7.2C156.8,42.5,153,45.1,147.7,45.2z"/>
</svg>
